<?xml version="1.0" standalone="no"?>
<!DOCTYPE svg PUBLIC "-//W3C//DTD SVG 20010904//EN"
 "http://www.w3.org/TR/2001/REC-SVG-20010904/DTD/svg10.dtd">
<svg version="1.0" xmlns="http://www.w3.org/2000/svg"
 width="512.000000pt" height="512.000000pt" viewBox="0 0 512.000000 512.000000"
 preserveAspectRatio="xMidYMid meet">
<metadata>
Created by potrace 1.16, written by Peter Selinger 2001-2019
</metadata>
<g transform="translate(0.000000,512.000000) scale(0.100000,-0.100000)"
fill="currentColor" stroke="none">
<path d="M1799 4350 c-705 -55 -1185 -308 -1393 -735 -41 -84 -67 -158 -97
-280 -8 -34 -13 -192 -16 -498 -5 -509 -5 -512 73 -617 83 -114 358 -259 616
-326 135 -35 232 -46 468 -54 410 -14 445 -30 810 -375 206 -195 323 -286 521
-406 368 -222 791 -328 1100 -275 449 76 750 374 879 869 80 306 101 722 49
982 -53 263 -190 539 -392 791 -99 122 -281 291 -398 369 -399 267 -1023 472
-1644 539 -179 19 -440 27 -576 16z m666 -89 c597 -70 1168 -253 1541 -497
351 -230 665 -685 738 -1071 36 -194 29 -430 -19 -600 -108 -380 -450 -714
-798 -780 -61 -11 -124 -14 -252 -10 -196 5 -295 26 -462 97 -212 90 -381 208
-588 409 -233 226 -373 335 -544 420 -181 92 -339 125 -641 136 -96 3 -213 11
-260 17 -236 29 -463 142 -640 318 -134 132 -180 258 -180 487 0 151 16 243
61 362 161 422 620 681 1294 731 179 13 553 3 750 -19z"/>
<path d="M1835 4029 c-609 -33 -1032 -259 -1173 -627 -62 -160 -64 -255 -8
-378 67 -147 312 -321 526 -374 68 -17 134 -23 330 -30 279 -9 372 -23 541
-80 262 -87 414 -189 744 -500 281 -264 505 -403 753 -466 116 -29 204 -30
301 -4 161 45 304 143 440 304 114 135 177 261 207 414 18 95 18 170 -1 271
-54 282 -205 552 -439 787 -136 135 -227 203 -387 288 -383 204 -1025 371
-1504 392 -66 2 -138 6 -160 8 -22 1 -99 -1 -170 -5z m1987 -1147 c82 -40 157
-119 190 -200 20 -50 23 -74 23 -202 0 -128 -3 -152 -23 -202 -33 -81 -108
-160 -190 -200 -67 -33 -67 -33 -222 -33 -155 0 -155 0 -222 33 -82 40 -157
119 -190 200 -20 50 -23 74 -23 202 0 128 3 152 23 202 27 67 97 148 159 184
78 46 117 54 268 51 136 -2 142 -3 207 -35z"/>
<path d="M3545 2651 c-49 -22 -109 -86 -125 -135 -16 -48 1 -96 52 -152 53
-57 113 -81 164 -64 52 17 120 83 140 135 20 55 8 99 -45 158 -35 39 -100 77
-131 77 -8 0 -33 -9 -55 -19z"/>
</g>
</svg>
